<svg width="29" height="28" viewBox="0 0 29 28" fill="none" xmlns="http://www.w3.org/2000/svg">
<ellipse cx="14.5" cy="14" rx="14.5" ry="14" fill="#6A994E" fill-opacity="0.7"/>
<path d="M8.00003 6.49988C7.58582 6.49988 7.25003 6.83566 7.25003 7.24988C7.25003 7.66409 7.58582 7.99988 8.00003 7.99988L8.00003 6.49988ZM9.6667 7.24988L10.3988 7.08718C10.3226 6.74403 10.0182 6.49988 9.6667 6.49988V7.24988ZM18.6667 17.7499C19.0809 17.7499 19.4167 17.4141 19.4167 16.9999C19.4167 16.5857 19.0809 16.2499 18.6667 16.2499V17.7499ZM20 8.74988L20.7322 8.91258C20.7815 8.6905 20.7274 8.45803 20.5851 8.28058C20.4427 8.10313 20.2275 7.99988 20 7.99988V8.74988ZM18.6667 14.7499V15.4999C19.0182 15.4999 19.3226 15.2557 19.3988 14.9126L18.6667 14.7499ZM8.00003 7.99988H9.6667V6.49988H8.00003L8.00003 7.99988ZM8.93456 7.41258L9.26789 8.91258L10.7322 8.58718L10.3988 7.08718L8.93456 7.41258ZM9.26789 8.91258L10.6012 14.9126L12.0655 14.5872L10.7322 8.58718L9.26789 8.91258ZM11.3334 13.9999H11V15.4999H11.3334V13.9999ZM11 17.7499H18.6667V16.2499H11V17.7499ZM9.25003 15.8749C9.25003 16.8249 9.95293 17.7499 11 17.7499V16.2499C10.9617 16.2499 10.9086 16.2341 10.8535 16.1721C10.7972 16.1088 10.75 16.0058 10.75 15.8749H9.25003ZM11 13.9999C9.95293 13.9999 9.25003 14.9248 9.25003 15.8749H10.75C10.75 15.7439 10.7972 15.641 10.8535 15.5777C10.9086 15.5157 10.9617 15.4999 11 15.4999V13.9999ZM10 9.49988H20V7.99988H10V9.49988ZM19.2679 8.58718L17.9346 14.5872L19.3988 14.9126L20.7322 8.91258L19.2679 8.58718ZM18.6667 13.9999H11.3334V15.4999H18.6667V13.9999ZM17.9167 19.9999C17.9167 20.0273 17.9069 20.0364 17.9109 20.0319C17.9133 20.0293 17.9212 20.0213 17.9373 20.0137C17.9543 20.0056 17.9763 19.9999 18 19.9999V21.4999C18.863 21.4999 19.4167 20.7428 19.4167 19.9999H17.9167ZM18 19.9999C18.0237 19.9999 18.0458 20.0056 18.0628 20.0137C18.0789 20.0213 18.0868 20.0293 18.0892 20.0319C18.0932 20.0364 18.0834 20.0273 18.0834 19.9999H16.5834C16.5834 20.7428 17.137 21.4999 18 21.4999V19.9999ZM18.0834 19.9999C18.0834 19.9725 18.0932 19.9633 18.0892 19.9678C18.0868 19.9705 18.0789 19.9784 18.0628 19.9861C18.0458 19.9941 18.0237 19.9999 18 19.9999V18.4999C17.137 18.4999 16.5834 19.2569 16.5834 19.9999H18.0834ZM18 19.9999C17.9763 19.9999 17.9543 19.9941 17.9373 19.9861C17.9212 19.9784 17.9133 19.9705 17.9109 19.9678C17.9069 19.9633 17.9167 19.9725 17.9167 19.9999H19.4167C19.4167 19.2569 18.863 18.4999 18 18.4999V19.9999ZM11.25 19.9999C11.25 20.0273 11.2402 20.0364 11.2442 20.0319C11.2466 20.0293 11.2545 20.0213 11.2706 20.0137C11.2876 20.0056 11.3097 19.9999 11.3334 19.9999V21.4999C12.1964 21.4999 12.75 20.7428 12.75 19.9999H11.25ZM11.3334 19.9999C11.3571 19.9999 11.3791 20.0056 11.3961 20.0137C11.4122 20.0213 11.4201 20.0293 11.4225 20.0319C11.4265 20.0364 11.4167 20.0273 11.4167 19.9999H9.9167C9.9167 20.7428 10.4704 21.4999 11.3334 21.4999V19.9999ZM11.4167 19.9999C11.4167 19.9725 11.4265 19.9633 11.4225 19.9678C11.4201 19.9705 11.4122 19.9784 11.3961 19.9861C11.3791 19.9941 11.3571 19.9999 11.3334 19.9999V18.4999C10.4704 18.4999 9.9167 19.2569 9.9167 19.9999H11.4167ZM11.3334 19.9999C11.3097 19.9999 11.2876 19.9941 11.2706 19.9861C11.2545 19.9784 11.2466 19.9705 11.2442 19.9678C11.2402 19.9633 11.25 19.9725 11.25 19.9999H12.75C12.75 19.2569 12.1964 18.4999 11.3334 18.4999V19.9999Z" fill="white"/>
</svg>
