<svg width="552" height="1061" viewBox="0 0 552 1061" fill="none" xmlns="http://www.w3.org/2000/svg">
<path d="M668.569 966.534C718.235 823.459 731.773 566.569 387.774 557.587C-50.6103 546.14 -11.3043 351.388 15.7585 217.299C21.1654 190.509 26.0836 166.141 26.6059 146.139C29.7422 26.0269 1008.53 -10.7285 1534.5 3.00533C1878.98 12.0001 1375.74 404.431 986.537 707.932C855.28 810.287 736.993 902.528 668.569 966.534ZM668.569 966.534C630.098 1002.52 607.39 1029.58 607 1044.5C605.915 1086.06 642.297 1042.22 668.569 966.534Z" fill="url(#paint0_linear_19_23)" fill-opacity="0.7"/>
<path d="M668.569 966.534C718.235 823.459 731.773 566.569 387.774 557.587C-50.6103 546.14 -11.3043 351.388 15.7585 217.299C21.1654 190.509 26.0836 166.141 26.6059 146.139C29.7422 26.0269 1008.53 -10.7285 1534.5 3.00533C1878.98 12.0001 1375.74 404.431 986.537 707.932C855.28 810.287 736.993 902.528 668.569 966.534ZM668.569 966.534C630.098 1002.52 607.39 1029.58 607 1044.5C605.915 1086.06 642.297 1042.22 668.569 966.534Z" stroke="#A7C957"/>
<defs>
<linearGradient id="paint0_linear_19_23" x1="1.08244" y1="314.948" x2="824.607" y2="336.451" gradientUnits="userSpaceOnUse">
<stop stop-color="#386641"/>
<stop offset="1" stop-color="#A7C957"/>
</linearGradient>
</defs>
</svg>
