<svg width="48" height="48" viewBox="0 0 48 48" fill="none" xmlns="http://www.w3.org/2000/svg">
<path d="M24 11.4064C24.7767 11.4064 25.4063 10.7768 25.4063 10.0002C25.4063 9.22353 24.7767 8.59393 24 8.59393V11.4064ZM13.1482 34.936C13.6995 35.483 14.5899 35.4796 15.137 34.9283C15.684 34.3771 15.6806 33.4867 15.1293 32.9396L13.1482 34.936ZM20.8299 15.2201C20.3991 15.8663 20.5738 16.7394 21.22 17.1703C21.8662 17.6011 22.7393 17.4264 23.1701 16.7802L20.8299 15.2201ZM26 10.0002L27.1701 10.7802C27.6009 10.134 27.4263 9.26092 26.7801 8.83011L26 10.0002ZM20.7801 4.83011C20.1339 4.3993 19.2608 4.57392 18.8299 5.22014C18.3991 5.86635 18.5738 6.73945 19.22 7.17025L20.7801 4.83011ZM24 36.5315C23.2234 36.5315 22.5938 37.1611 22.5938 37.9377C22.5938 38.7144 23.2234 39.344 24 39.344V36.5315ZM34.8518 13.002C34.3005 12.4549 33.4101 12.4583 32.8631 13.0096C32.316 13.5609 32.3194 14.4512 32.8707 14.9983L34.8518 13.002ZM27.1701 32.7802C27.6009 32.134 27.4263 31.2609 26.7801 30.8301C26.1339 30.3993 25.2608 30.5739 24.8299 31.2201L27.1701 32.7802ZM22 38.0002L20.8299 37.2201C20.3991 37.8663 20.5738 38.7394 21.22 39.1703L22 38.0002ZM27.22 43.1703C27.8662 43.6011 28.7393 43.4264 29.1701 42.7802C29.6009 42.134 29.4263 41.2609 28.7801 40.8301L27.22 43.1703ZM24 8.59393C15.4914 8.59393 8.59377 15.4915 8.59377 24.0002H11.4063C11.4063 17.0448 17.0447 11.4064 24 11.4064V8.59393ZM8.59377 24.0002C8.59377 28.2755 10.3371 32.1463 13.1482 34.936L15.1293 32.9396C12.8285 30.6564 11.4063 27.4957 11.4063 24.0002H8.59377ZM23.1701 16.7802L27.1701 10.7802L24.8299 9.22014L20.8299 15.2201L23.1701 16.7802ZM26.7801 8.83011L20.7801 4.83011L19.22 7.17025L25.22 11.1703L26.7801 8.83011ZM24 39.344C32.5087 39.344 39.4063 32.4464 39.4063 23.9377H36.5938C36.5938 30.8931 30.9554 36.5315 24 36.5315V39.344ZM39.4063 23.9377C39.4063 19.6624 37.6629 15.7916 34.8518 13.002L32.8707 14.9983C35.1715 17.2816 36.5938 20.4423 36.5938 23.9377H39.4063ZM24.8299 31.2201L20.8299 37.2201L23.1701 38.7802L27.1701 32.7802L24.8299 31.2201ZM21.22 39.1703L27.22 43.1703L28.7801 40.8301L22.7801 36.8301L21.22 39.1703Z" fill="#386641"/>
</svg>
