<svg width="21" height="21" viewBox="0 0 21 21" fill="none" xmlns="http://www.w3.org/2000/svg">
<path fill-rule="evenodd" clip-rule="evenodd" d="M6.2712 0.528423C7.33786 0.480353 7.6787 0.46875 10.3945 0.46875C13.1104 0.46875 13.4512 0.480353 14.5179 0.528423C16.1429 0.602185 17.5704 0.998347 18.7162 2.13793C19.862 3.27752 20.2604 4.69724 20.3345 6.31338C20.3829 7.37424 20.3945 7.71321 20.3945 10.4142C20.3945 13.1153 20.3829 13.4542 20.3345 14.5151C20.2604 16.1312 19.862 17.551 18.7162 18.6905C17.5704 19.8301 16.1429 20.2263 14.5179 20.3001C13.4512 20.3481 13.1104 20.3597 10.3945 20.3597C7.6787 20.3597 7.33786 20.3481 6.2712 20.3001C4.6462 20.2263 3.2187 19.8301 2.07286 18.6905C0.927031 17.551 0.528698 16.1312 0.454531 14.5151C0.406198 13.4542 0.394531 13.1153 0.394531 10.4142C0.394531 7.71321 0.406198 7.37424 0.454531 6.31338C0.528698 4.69724 0.927031 3.27752 2.07286 2.13793C3.2187 0.998347 4.6462 0.602185 6.2712 0.528423ZM14.4345 2.31876C13.3803 2.27069 13.0636 2.26074 10.3936 2.26074C7.72365 2.26074 7.40698 2.27069 6.35281 2.31876C5.21448 2.37014 4.15865 2.59723 3.34615 3.4053C2.53365 4.21337 2.30531 5.26345 2.25365 6.39558C2.20531 7.444 2.19531 7.75894 2.19531 10.4144C2.19531 13.0698 2.20531 13.3848 2.25365 14.4332C2.30531 15.5653 2.53365 16.6154 3.34615 17.4235C4.15865 18.2315 5.21448 18.4586 6.35281 18.51C7.40698 18.5581 7.72365 18.568 10.3936 18.568C13.0636 18.568 13.3803 18.5581 14.4345 18.51C15.5728 18.4586 16.6286 18.2315 17.4411 17.4235C18.2536 16.6154 18.482 15.5653 18.5336 14.4332C18.582 13.3848 18.592 13.0698 18.592 10.4144C18.592 7.75894 18.582 7.444 18.5336 6.39558C18.482 5.26345 18.2536 4.21337 17.4411 3.4053C16.6286 2.59723 15.5728 2.37014 14.4345 2.31876ZM5.25781 10.4137C5.25781 7.59328 7.55698 5.30664 10.3928 5.30664C13.2286 5.30664 15.5278 7.59328 15.5278 10.4137C15.5278 13.234 13.2286 15.5207 10.3928 15.5207C7.55698 15.5207 5.25781 13.234 5.25781 10.4137ZM7.05859 10.4138C7.05859 12.2446 8.55109 13.729 10.3919 13.729C12.2328 13.729 13.7253 12.2446 13.7253 10.4138C13.7253 8.583 12.2328 7.09863 10.3919 7.09863C8.55109 7.09863 7.05859 8.583 7.05859 10.4138ZM16.9312 5.10557C16.9312 5.7647 16.394 6.29903 15.7312 6.29903C15.0685 6.29903 14.5312 5.7647 14.5312 5.10557C14.5312 4.44644 15.0685 3.91211 15.7312 3.91211C16.394 3.91211 16.9312 4.44644 16.9312 5.10557Z" fill="#386641"/>
</svg>
